<svg width="13" height="15" viewBox="0 0 13 15" fill="none" xmlns="http://www.w3.org/2000/svg">
<path d="M12.3559 11.7975L12.3199 11.8321L12.3559 11.7975C11.2871 10.6828 10.6985 9.21856 10.6985 7.67423V6.45898C10.6985 4.67649 9.52225 3.16399 7.9055 2.65591V2.14258C7.9055 1.48495 7.37055 0.95 6.71292 0.95C6.05529 0.95 5.52034 1.48495 5.52034 2.14258V2.65591C3.90357 3.16399 2.72737 4.67646 2.72737 6.45898V7.67423C2.72737 9.21859 2.13878 10.6828 1.0699 11.7975C0.950407 11.9221 0.916827 12.106 0.984558 12.2647C1.05229 12.4235 1.20826 12.5266 1.38089 12.5266H4.80654C5.00327 13.3975 5.78321 14.05 6.71292 14.05C7.64266 14.05 8.42254 13.3975 8.6193 12.5266H12.045C12.2176 12.5266 12.3735 12.4235 12.4413 12.2647C12.509 12.106 12.4754 11.9221 12.3559 11.7975ZM6.38206 2.14258C6.38206 1.96019 6.53053 1.81172 6.71292 1.81172C6.89531 1.81172 7.04378 1.96019 7.04378 2.14258V2.48724C6.9347 2.47819 6.82436 2.47344 6.71292 2.47344C6.60148 2.47344 6.49114 2.47819 6.38206 2.48724V2.14258ZM6.71292 13.1883C6.26359 13.1883 5.8767 12.9154 5.70914 12.5266H7.7167C7.54914 12.9154 7.16226 13.1883 6.71292 13.1883ZM2.30055 11.6648C3.13685 10.5092 3.58909 9.12234 3.58909 7.67423V6.45898C3.58909 4.73655 4.99049 3.33516 6.71292 3.33516C8.43536 3.33516 9.83675 4.73655 9.83675 6.45898V7.67423C9.83675 9.12234 10.289 10.5092 11.1253 11.6648H2.30055Z" fill="#47D7AC" stroke="#47D7AC" stroke-width="0.1"/>
<path d="M11.6143 6.45899C11.6143 6.69694 11.8072 6.88985 12.0451 6.88985C12.2831 6.88985 12.476 6.69694 12.476 6.45899C12.476 4.91976 11.8765 3.47239 10.7881 2.38399C10.6198 2.21575 10.347 2.21572 10.1787 2.38399C10.0105 2.55225 10.0105 2.82505 10.1787 2.99331C11.1045 3.9191 11.6143 5.14973 11.6143 6.45899Z" fill="#47D7AC" stroke="#47D7AC" stroke-width="0.1"/>
<path d="M1.81196 6.45898C1.81196 6.69693 1.61905 6.88984 1.3811 6.88984C1.14315 6.88984 0.950244 6.69693 0.950244 6.45898C0.950244 4.91974 1.54975 3.4724 2.63816 2.384L1.81196 6.45898ZM1.81196 6.45898C1.81196 5.14974 2.32172 3.91911 3.24748 2.99332M1.81196 6.45898L3.24748 2.99332M3.24748 2.99332C3.41574 2.82506 3.41574 2.55227 3.24748 2.384L3.24748 2.99332Z" fill="#47D7AC" stroke="#47D7AC" stroke-width="0.1"/>
</svg>
