<svg width="8" height="15" viewBox="0 0 8 15" fill="none" xmlns="http://www.w3.org/2000/svg">
<path d="M0.217211 7.90559L6.27705 14.4323C6.4172 14.5834 6.6043 14.6666 6.8038 14.6666C7.00329 14.6666 7.19039 14.5834 7.33055 14.4323L7.77681 13.9518C8.0672 13.6387 8.0672 13.1297 7.77681 12.8171L2.68822 7.33633L7.78246 1.84949C7.92261 1.69842 8 1.49702 8 1.28227C8 1.06728 7.92261 0.865881 7.78246 0.714684L7.33619 0.234266C7.19593 0.0831881 7.00894 -4.1008e-05 6.80944 -4.1008e-05C6.60995 -4.1008e-05 6.42285 0.0831881 6.28269 0.234266L0.217211 6.76696C0.0767226 6.91852 -0.000440598 7.12087 1.90735e-06 7.33598C-0.000440598 7.55192 0.0767226 7.75415 0.217211 7.90559Z" fill="#E8E8E8"/>
<path d="M0.217211 7.90559L6.27705 14.4323C6.4172 14.5834 6.6043 14.6666 6.8038 14.6666C7.00329 14.6666 7.19039 14.5834 7.33055 14.4323L7.77681 13.9518C8.0672 13.6387 8.0672 13.1297 7.77681 12.8171L2.68822 7.33633L7.78246 1.84949C7.92261 1.69842 8 1.49702 8 1.28227C8 1.06728 7.92261 0.865881 7.78246 0.714684L7.33619 0.234266C7.19593 0.0831881 7.00894 -4.1008e-05 6.80944 -4.1008e-05C6.60995 -4.1008e-05 6.42285 0.0831881 6.28269 0.234266L0.217211 6.76696C0.0767226 6.91852 -0.000440598 7.12087 1.90735e-06 7.33598C-0.000440598 7.55192 0.0767226 7.75415 0.217211 7.90559Z" stroke="white"/>
</svg>
