<svg width="8" height="15" viewBox="0 0 8 15" fill="none" xmlns="http://www.w3.org/2000/svg">
<path d="M7.78279 7.90559L1.72295 14.4323C1.5828 14.5834 1.3957 14.6666 1.1962 14.6666C0.996706 14.6666 0.809609 14.5834 0.669453 14.4323L0.223188 13.9518C-0.0671998 13.6387 -0.0671998 13.1297 0.223188 12.8171L5.31178 7.33633L0.217542 1.84949C0.0773851 1.69842 0 1.49702 0 1.28227C0 1.06728 0.0773851 0.865881 0.217542 0.714684L0.663807 0.234266C0.804074 0.083189 0.99106 -4.1008e-05 1.19056 -4.1008e-05C1.39005 -4.1008e-05 1.57715 0.083189 1.71731 0.234266L7.78279 6.76696C7.92328 6.91852 8.00044 7.12087 8 7.33598C8.00044 7.55192 7.92328 7.75415 7.78279 7.90559Z" fill="#0957C3"/>
<path d="M7.78279 7.90559L1.72295 14.4323C1.5828 14.5834 1.3957 14.6666 1.1962 14.6666C0.996706 14.6666 0.809609 14.5834 0.669453 14.4323L0.223188 13.9518C-0.0671998 13.6387 -0.0671998 13.1297 0.223188 12.8171L5.31178 7.33633L0.217542 1.84949C0.0773851 1.69842 0 1.49702 0 1.28227C0 1.06728 0.0773851 0.865881 0.217542 0.714684L0.663807 0.234266C0.804074 0.083189 0.99106 -4.1008e-05 1.19056 -4.1008e-05C1.39005 -4.1008e-05 1.57715 0.083189 1.71731 0.234266L7.78279 6.76696C7.92328 6.91852 8.00044 7.12087 8 7.33598C8.00044 7.55192 7.92328 7.75415 7.78279 7.90559Z" stroke="white"/>
</svg>
