<svg width="13" height="13" viewBox="0 0 13 13" fill="none" xmlns="http://www.w3.org/2000/svg">
<g clip-path="url(#clip0_2_2179)">
<path d="M1.96443 13H11.0355C11.9865 13 12.7593 12.2272 12.7593 11.2763V2.68665C12.7593 1.73573 11.9865 0.962945 11.0355 0.962945H10.3518V0.481473C10.3518 0.216655 10.1352 0 9.87033 0C9.60552 0 9.38886 0.216655 9.38886 0.481473V0.962945H3.61111V0.481473C3.61111 0.216655 3.39442 0 3.1296 0C2.86478 0 2.64813 0.216655 2.64813 0.481473V0.962945H1.96443C1.01351 0.962945 0.240723 1.73573 0.240723 2.68665V11.2763C0.240723 12.2272 1.01351 13 1.96443 13ZM1.20371 2.68665C1.20371 2.26778 1.54556 1.92593 1.96443 1.92593H2.64813V2.4074C2.64813 2.67222 2.86478 2.88888 3.1296 2.88888C3.39442 2.88888 3.61107 2.67222 3.61107 2.4074V1.92593H9.38886V2.4074C9.38886 2.67222 9.60552 2.88888 9.87033 2.88888C10.1352 2.88888 10.3518 2.67222 10.3518 2.4074V1.92593H11.0355C11.4544 1.92593 11.7962 2.26778 11.7962 2.68665V4.0926H1.20371V2.68665ZM1.20371 5.05554H11.7963V11.2763C11.7963 11.6952 11.4545 12.037 11.0356 12.037H1.96443C1.54556 12.037 1.20371 11.6952 1.20371 11.2763V5.05554Z" fill="#0957C3"/>
</g>
<defs>
<clipPath id="clip0_2_2179">
<rect width="13" height="13" fill="white"/>
</clipPath>
</defs>
</svg>
