<svg width="20" height="21" viewBox="0 0 20 21" fill="none" xmlns="http://www.w3.org/2000/svg">
<path d="M17.1798 15.0938L16.8592 16.5539C16.7936 16.8518 16.5411 17.0625 16.2498 17.0625H3.74982C3.45857 17.0625 3.20607 16.8518 3.14045 16.5539L2.81982 15.0938H17.1798Z" fill="#FFC107"/>
<path d="M18.7342 8.02271L17.4686 13.7813H2.53109L1.26546 8.02271C1.20984 7.76874 1.30234 7.50362 1.50171 7.34809C1.70171 7.19256 1.96984 7.17615 2.18484 7.30543L6.05296 9.62659L9.47921 4.23024C9.59109 4.05437 9.77609 3.94543 9.97671 3.93756C10.1792 3.92837 10.3698 4.02418 10.493 4.19087L14.5111 9.61543L17.778 7.32906C17.9911 7.18074 18.2692 7.18206 18.4798 7.33496C18.6911 7.48787 18.7911 7.76087 18.7342 8.02271Z" fill="#FFC107"/>
</svg>
