<svg width="55" height="75" viewBox="0 0 55 75" fill="none" xmlns="http://www.w3.org/2000/svg">
<mask id="mask0_8_517" style="mask-type:alpha" maskUnits="userSpaceOnUse" x="0" y="0" width="55" height="75">
<path d="M0 8C0 3.58172 3.58172 0 8 0H47C51.4183 0 55 3.58172 55 8V67C55 71.4183 51.4183 75 47 75H8C3.58172 75 0 71.4183 0 67V8Z" fill="#ACACAC"/>
</mask>
<g mask="url(#mask0_8_517)">
<path d="M0 8C0 3.58172 3.58172 0 8 0H47C51.4183 0 55 3.58172 55 8V67C55 71.4183 51.4183 75 47 75H8C3.58172 75 0 71.4183 0 67V8Z" fill="#F9FAFB"/>
<path d="M0.5 8C0.5 3.85787 3.85786 0.5 8 0.5H47C51.1421 0.5 54.5 3.85786 54.5 8V67C54.5 71.1421 51.1421 74.5 47 74.5H8C3.85786 74.5 0.5 71.1421 0.5 67V8Z" stroke="#808EB8" stroke-opacity="0.07"/>
<path d="M32.6841 29.1654C17.1764 35.9652 13.1037 29.1654 7.46468 33.6471C1.82563 38.1287 5.7416 56.7045 20.4659 59.6098C35.1902 62.5151 46.2977 55.4383 48.8183 46.9375C51.3389 38.4367 48.1917 22.3656 32.6841 29.1654Z" fill="#0957C3" fill-opacity="0.07"/>
<ellipse cx="21.0637" cy="29.7482" rx="1.32665" ry="1.31233" stroke="#0957C3"/>
<ellipse cx="35.6572" cy="29.7482" rx="1.32665" ry="1.31233" stroke="#0957C3"/>
<path d="M21.7275 24.5702C21.7275 20.9068 24.6973 17.937 28.3608 17.937C32.0242 17.937 34.994 20.9068 34.994 24.5702V29.6763C34.994 33.3397 32.0242 36.3095 28.3608 36.3095C24.6973 36.3095 21.7275 33.3397 21.7275 29.6763V24.5702Z" fill="white" stroke="#0957C3"/>
<path fill-rule="evenodd" clip-rule="evenodd" d="M31.3714 18.6577C31.5673 18.239 31.6767 17.7725 31.6767 17.2808C31.6767 15.4689 30.1918 14 28.3601 14C26.5284 14 25.0435 15.4689 25.0435 17.2808C25.0435 17.7729 25.153 18.2397 25.3492 18.6586C26.253 18.1972 27.2767 17.9369 28.3611 17.9369C29.4449 17.9369 30.4679 18.1968 31.3714 18.6577Z" fill="#C1D5F0"/>
<path d="M31.3714 18.6577L31.1442 19.1031L31.6049 19.3382L31.8242 18.8697L31.3714 18.6577ZM25.3492 18.6586L24.8964 18.8707L25.1158 19.3391L25.5765 19.1039L25.3492 18.6586ZM31.1767 17.2808C31.1767 17.6977 31.0841 18.0919 30.9185 18.4457L31.8242 18.8697C32.0505 18.3861 32.1767 17.8474 32.1767 17.2808H31.1767ZM28.3601 14.5C29.9208 14.5 31.1767 15.7501 31.1767 17.2808H32.1767C32.1767 15.1876 30.4628 13.5 28.3601 13.5V14.5ZM25.5435 17.2808C25.5435 15.7501 26.7994 14.5 28.3601 14.5V13.5C26.2573 13.5 24.5435 15.1876 24.5435 17.2808H25.5435ZM25.802 18.4465C25.6362 18.0924 25.5435 17.6979 25.5435 17.2808H24.5435C24.5435 17.8478 24.6698 18.3869 24.8964 18.8707L25.802 18.4465ZM25.5765 19.1039C26.4116 18.6776 27.3575 18.4369 28.3611 18.4369V17.4369C27.1958 17.4369 26.0945 17.7167 25.1219 18.2132L25.5765 19.1039ZM28.3611 18.4369C29.3641 18.4369 30.3095 18.6773 31.1442 19.1031L31.5986 18.2123C30.6264 17.7164 29.5257 17.4369 28.3611 17.4369V18.4369Z" fill="#0957C3"/>
<path fill-rule="evenodd" clip-rule="evenodd" d="M25.7073 35.757V38.9342L28.3606 40.9027L31.0139 38.9342V35.7572C30.2014 36.1121 29.3041 36.309 28.3609 36.309C27.4174 36.309 26.5199 36.112 25.7073 35.757Z" fill="white"/>
<path d="M25.7073 38.9342H25.2073V39.1858L25.4094 39.3358L25.7073 38.9342ZM25.7073 35.757L25.9075 35.2988L25.2073 34.9928V35.757H25.7073ZM28.3606 40.9027L28.0627 41.3043L28.3606 41.5253L28.6585 41.3043L28.3606 40.9027ZM31.0139 38.9342L31.3118 39.3358L31.5139 39.1858V38.9342H31.0139ZM31.0139 35.7572H31.5139V34.9932L30.8137 35.299L31.0139 35.7572ZM26.2073 38.9342V35.757H25.2073V38.9342H26.2073ZM28.6585 40.5012L26.0052 38.5327L25.4094 39.3358L28.0627 41.3043L28.6585 40.5012ZM30.716 38.5327L28.0627 40.5012L28.6585 41.3043L31.3118 39.3358L30.716 38.5327ZM30.5139 35.7572V38.9342H31.5139V35.7572H30.5139ZM30.8137 35.299C30.0632 35.6269 29.234 35.809 28.3609 35.809V36.809C29.3743 36.809 30.3397 36.5974 31.214 36.2154L30.8137 35.299ZM28.3609 35.809C27.4876 35.809 26.6581 35.6268 25.9075 35.2988L25.5071 36.2151C26.3816 36.5973 27.3472 36.809 28.3609 36.809V35.809Z" fill="#0957C3"/>
<path fill-rule="evenodd" clip-rule="evenodd" d="M26.0167 39.1642C20.5448 40.2533 16.4207 45.082 16.4207 50.8741V51.0575C16.4207 51.6097 16.8684 52.0575 17.4207 52.0575H39.3003C39.8526 52.0575 40.3003 51.6097 40.3003 51.0575V50.8741C40.3003 45.0818 36.1758 40.2528 30.7035 39.164L28.36 40.9026L26.0167 39.1642Z" fill="#C1D5F0"/>
<path d="M26.0167 39.1642L26.3146 38.7626L26.1366 38.6305L25.9191 38.6738L26.0167 39.1642ZM30.7035 39.164L30.801 38.6736L30.5836 38.6304L30.4056 38.7624L30.7035 39.164ZM28.36 40.9026L28.0621 41.3042L28.36 41.5252L28.6579 41.3042L28.36 40.9026ZM16.9207 50.8741C16.9207 45.3252 20.8718 40.698 26.1143 39.6545L25.9191 38.6738C20.2178 39.8086 15.9207 44.8389 15.9207 50.8741H16.9207ZM16.9207 51.0575V50.8741H15.9207V51.0575H16.9207ZM17.4207 51.5575C17.1445 51.5575 16.9207 51.3336 16.9207 51.0575H15.9207C15.9207 51.8859 16.5922 52.5575 17.4207 52.5575V51.5575ZM39.3003 51.5575H17.4207V52.5575H39.3003V51.5575ZM39.8003 51.0575C39.8003 51.3336 39.5765 51.5575 39.3003 51.5575V52.5575C40.1288 52.5575 40.8003 51.8859 40.8003 51.0575H39.8003ZM39.8003 50.8741V51.0575H40.8003V50.8741H39.8003ZM30.6059 39.6544C35.8488 40.6976 39.8003 45.3249 39.8003 50.8741H40.8003C40.8003 44.8386 36.5028 39.8081 30.801 38.6736L30.6059 39.6544ZM30.4056 38.7624L28.0621 40.5011L28.6579 41.3042L31.0014 39.5656L30.4056 38.7624ZM28.6579 40.5011L26.3146 38.7626L25.7188 39.5657L28.0621 41.3042L28.6579 40.5011Z" fill="#0957C3"/>
<path d="M21.3954 49.99H19.802C19.7661 49.99 19.7371 49.9609 19.7371 49.925V46.745C19.7371 44.9132 21.222 43.4283 23.0537 43.4283V43.4283C24.8854 43.4283 26.3703 44.9132 26.3703 46.745V49.925C26.3703 49.9609 26.3412 49.99 26.3053 49.99H24.712" stroke="#0957C3" stroke-linecap="round"/>
<ellipse cx="34.331" cy="48.0218" rx="1.98997" ry="1.96849" fill="white" stroke="#0957C3"/>
<path fill-rule="evenodd" clip-rule="evenodd" d="M21.7275 24.5702V27.4488C22.5756 27.6647 23.4646 27.7795 24.3807 27.7795C27.388 27.7795 30.1031 26.5423 32.0343 24.5543C32.865 25.3129 33.8743 25.8829 34.9928 26.1957V24.5702C34.9928 23.4046 34.6922 22.3092 34.1642 21.3573C34.1644 21.3569 34.1646 21.3565 34.1647 21.3561C33.0331 19.317 30.8581 17.937 28.3608 17.937C24.6973 17.937 21.7275 20.9068 21.7275 24.5702Z" fill="#C1D5F0"/>
<path d="M21.7275 27.4488H21.2275V27.8374L21.6042 27.9333L21.7275 27.4488ZM32.0343 24.5543L32.3715 24.1851L32.0135 23.8582L31.6757 24.2059L32.0343 24.5543ZM34.9928 26.1957L34.8581 26.6773L35.4928 26.8548V26.1957H34.9928ZM34.1642 21.3573L33.7042 21.1615L33.6085 21.3862L33.727 21.5999L34.1642 21.3573ZM34.1647 21.3561L34.6248 21.5519L34.7205 21.3271L34.6019 21.1135L34.1647 21.3561ZM22.2275 27.4488V24.5702H21.2275V27.4488H22.2275ZM24.3807 27.2795C23.5065 27.2795 22.6589 27.1699 21.8509 26.9642L21.6042 27.9333C22.4922 28.1594 23.4227 28.2795 24.3807 28.2795V27.2795ZM31.6757 24.2059C29.8353 26.1003 27.2482 27.2795 24.3807 27.2795V28.2795C27.5278 28.2795 30.3709 26.9842 32.3929 24.9027L31.6757 24.2059ZM35.1275 25.7142C34.0858 25.4228 33.1455 24.8918 32.3715 24.1851L31.6971 24.9235C32.5846 25.7339 33.6629 26.343 34.8581 26.6773L35.1275 25.7142ZM34.4928 24.5702V26.1957H35.4928V24.5702H34.4928ZM33.727 21.5999C34.2148 22.4794 34.4928 23.4916 34.4928 24.5702H35.4928C35.4928 23.3176 35.1695 22.139 34.6014 21.1148L33.727 21.5999ZM33.7046 21.1604C33.7047 21.1603 33.7047 21.1603 33.7046 21.1605C33.7045 21.1606 33.7043 21.161 33.7042 21.1615L34.6243 21.5532C34.6242 21.5532 34.6242 21.5532 34.6243 21.553C34.6244 21.5528 34.6246 21.5523 34.6248 21.5519L33.7046 21.1604ZM28.3608 18.437C30.6692 18.437 32.6805 19.7121 33.7275 21.5987L34.6019 21.1135C33.3857 18.922 31.047 17.437 28.3608 17.437V18.437ZM22.2275 24.5702C22.2275 21.1829 24.9735 18.437 28.3608 18.437V17.437C24.4212 17.437 21.2275 20.6306 21.2275 24.5702H22.2275Z" fill="#0957C3"/>
<line x1="22.8904" y1="40.6476" x2="22.8904" y2="43.5846" stroke="#0957C3" stroke-linecap="round"/>
<line x1="34.1672" y1="40.6476" x2="34.1672" y2="45.5531" stroke="#0957C3" stroke-linecap="round"/>
<path d="M47.2286 21.5214L46.9332 21.1201L47.2286 21.5214L45.8912 22.488L45.77 24.1138C45.729 24.6637 45.0241 24.8633 44.6895 24.4198L43.7004 23.1083L42.0425 22.9898C41.4814 22.9497 41.2703 22.2353 41.7229 21.9082L43.0603 20.9416L43.1815 19.3158C43.2225 18.7659 43.9275 18.5663 44.262 19.0099L45.2511 20.3214L46.9091 20.4398C47.4701 20.4799 47.6812 21.1943 47.2286 21.5214Z" fill="white" stroke="#0957C3"/>
<path d="M50.6745 30.4211C50.0473 30.5986 49.3761 30.247 49.1885 29.612C49.0008 28.9771 49.3767 28.329 50.0039 28.1514C50.6311 27.9739 51.3023 28.3254 51.4899 28.9604C51.6775 29.5954 51.3016 30.2435 50.6745 30.4211Z" fill="white" stroke="#0957C3"/>
</g>
</svg>
