<svg width="16" height="16" viewBox="0 0 16 16" fill="none" xmlns="http://www.w3.org/2000/svg">
<path d="M2.78768 13.394H3.45435V4.72729H2.78768C2.43406 4.72729 2.09492 4.86777 1.84487 5.11782C1.59482 5.36787 1.45435 5.70701 1.45435 6.06063V12.0606C1.45435 12.4143 1.59482 12.7534 1.84487 13.0034C2.09492 13.2535 2.43406 13.394 2.78768 13.394ZM13.4543 4.72729H8.78768L9.53568 2.48196C9.60242 2.28157 9.6206 2.06819 9.58873 1.8594C9.55685 1.6506 9.47583 1.45237 9.35233 1.28102C9.22883 1.10968 9.0664 0.970123 8.8784 0.873852C8.6904 0.777581 8.48222 0.72735 8.27101 0.727295H8.12101L4.78768 4.35263V13.394H12.121L14.729 7.6633L14.7877 7.39396V6.06063C14.7877 5.70701 14.6472 5.36787 14.3972 5.11782C14.1471 4.86777 13.808 4.72729 13.4543 4.72729Z" fill="#47D7AC"/>
</svg>
