<svg width="9" height="5" viewBox="0 0 9 5" fill="none" xmlns="http://www.w3.org/2000/svg">
<path d="M4.14882 4.7758L0.143779 1.05727C0.0510728 0.971261 0 0.856451 0 0.734033C0 0.611615 0.0510728 0.496806 0.143779 0.410801L0.438655 0.136956C0.6308 -0.0412362 0.94309 -0.0412362 1.13494 0.136956L4.49813 3.2595L7.86506 0.133491C7.95776 0.0474863 8.08135 0 8.21313 0C8.34505 0 8.46864 0.0474863 8.56142 0.133491L8.85622 0.407336C8.94893 0.493409 9 0.608151 9 0.730569C9 0.852987 8.94893 0.967796 8.85622 1.0538L4.84752 4.7758C4.75452 4.86201 4.63035 4.90936 4.49835 4.90909C4.36584 4.90936 4.24175 4.86201 4.14882 4.7758Z" fill="#5E6E71"/>
</svg>
