<svg width="13" height="19" viewBox="0 0 13 19" fill="none" xmlns="http://www.w3.org/2000/svg">
<path d="M5.24794 4.26343L5.24794 7.47883C5.24794 7.4789 5.24794 7.47897 5.24794 7.47904V7.47906H5.14794L5.24794 4.26343ZM5.24794 4.26343H7.5375L7.5375 7.47906L7.5375 7.47925C7.53973 8.62117 7.80319 9.74762 8.30746 10.7721L8.30772 10.7726L8.74081 11.64H4.06996L4.49186 10.7718L5.24794 4.26343ZM3.96565 4.26326L3.96565 7.47872L3.96565 7.479C3.96831 8.42813 3.75451 9.36544 3.34056 10.2194C3.34052 10.2195 3.34048 10.2196 3.34045 10.2197L0.555559 15.9039L0.555458 15.9041C0.250139 16.531 0.288272 17.2707 0.656265 17.8631L0.656279 17.8632C1.02427 18.4552 1.67033 18.8172 2.3677 18.8213H2.36829L10.4446 18.8213L10.4451 18.8213C11.1412 18.8175 11.7866 18.4559 12.1534 17.8641L12.1535 17.864C12.5201 17.2722 12.5568 16.5334 12.2505 15.9083L12.2505 15.9082L9.45852 10.2196L3.96565 4.26326ZM1.74911 17.1876L1.74821 17.1862C1.61166 16.9667 1.5981 16.6925 1.71218 16.461L1.71234 16.4607L3.44122 12.9223H9.37166L11.1009 16.4607L11.101 16.461C11.2149 16.6925 11.2014 16.9667 11.065 17.1862L11.1499 17.239L11.0642 17.1875C10.9335 17.4052 10.6984 17.5387 10.4445 17.5388H2.36835C2.11458 17.5387 1.87939 17.4052 1.7491 17.1876L1.74911 17.1876ZM4.43626 2.36929H8.40337V2.98097H4.43626V2.36929Z" fill="#0957C3" stroke="#0957C3" stroke-width="0.2"/>
</svg>
