<svg width="8" height="16" viewBox="0 0 8 16" fill="none" xmlns="http://www.w3.org/2000/svg">
<path d="M0.611147 1.29432L0.611175 1.29428C0.730122 1.11365 0.933081 1.00636 1.14925 1.00931H6.55976L0.611147 1.29432ZM0.611147 1.29432C0.492105 1.4753 0.473788 1.70456 0.562692 1.90208L0.562744 1.9022L1.26773 3.46323L1.26769 3.46325L1.26903 3.466C1.30767 3.54502 1.32942 3.63157 1.3327 3.71938L0.611147 1.29432ZM2.615 6.43198L5.12098 4.54642V3.71802V3.71775H5.22098C5.2198 3.46627 5.27195 3.21717 5.37441 2.98719L2.615 6.43198ZM2.615 6.43198V3.71758H2.61501L2.61499 3.71624C2.61141 3.44957 2.55155 3.18675 2.43875 2.94496C2.43871 2.94488 2.43867 2.94481 2.43864 2.94473L2.1373 2.29129L5.57384 2.29175L5.28306 2.9465L2.615 6.43198ZM2.615 13.2638V13.2636V8.03383L5.12098 6.14826L5.12098 13.2613L5.12098 13.2616C5.12349 13.9548 4.56366 14.5191 3.87017 14.5218C3.87008 14.5218 3.87 14.5218 3.86991 14.5218L3.86825 14.5218C3.17467 14.5205 2.61374 13.9571 2.615 13.2638Z" fill="#0957C3" stroke="#0957C3" stroke-width="0.2"/>
</svg>
