<svg width="20" height="20" viewBox="0 0 20 20" fill="none" xmlns="http://www.w3.org/2000/svg">
<path d="M0.611147 4.29432L0.611175 4.29428C0.730122 4.11365 0.933081 4.00636 1.14925 4.00931H6.55976L0.611147 4.29432ZM0.611147 4.29432C0.492105 4.4753 0.473788 4.70456 0.562692 4.90208L0.562744 4.9022L1.26773 6.46323L1.26769 6.46325L1.26903 6.466C1.30767 6.54502 1.32942 6.63157 1.3327 6.71938L0.611147 4.29432ZM2.615 9.43198L5.12098 7.54642V6.71802V6.71775H5.22098C5.2198 6.46627 5.27195 6.21717 5.37441 5.98719L2.615 9.43198ZM2.615 9.43198V6.71758H2.61501L2.61499 6.71624C2.61141 6.44957 2.55155 6.18675 2.43875 5.94496C2.43871 5.94488 2.43867 5.94481 2.43864 5.94473L2.1373 5.29129L5.57384 5.29175L5.28306 5.9465L2.615 9.43198ZM2.615 16.2638V16.2636V11.0338L5.12098 9.14826L5.12098 16.2613L5.12098 16.2616C5.12349 16.9548 4.56366 17.5191 3.87017 17.5218C3.87008 17.5218 3.87 17.5218 3.86991 17.5218L3.86825 17.5218C3.17467 17.5205 2.61374 16.9571 2.615 16.2638Z" fill="#0957C3" stroke="#0957C3" stroke-width="0.2"/>
<path d="M12.2479 4.26343L12.2479 7.47883C12.2479 7.4789 12.2479 7.47897 12.2479 7.47904V7.47906H12.1479L12.2479 4.26343ZM12.2479 4.26343H14.5375L14.5375 7.47906L14.5375 7.47925C14.5397 8.62117 14.8032 9.74762 15.3075 10.7721L15.3077 10.7726L15.7408 11.64H11.07L11.4919 10.7718L12.2479 4.26343ZM10.9656 4.26326L10.9656 7.47872L10.9656 7.479C10.9683 8.42813 10.7545 9.36544 10.3406 10.2194C10.3405 10.2195 10.3405 10.2196 10.3404 10.2197L7.55556 15.9039L7.55546 15.9041C7.25014 16.531 7.28827 17.2707 7.65626 17.8631L7.65628 17.8632C8.02427 18.4552 8.67033 18.8172 9.3677 18.8213H9.36829L17.4446 18.8213L17.4451 18.8213C18.1412 18.8175 18.7866 18.4559 19.1534 17.8641L19.1535 17.864C19.5201 17.2722 19.5568 16.5334 19.2505 15.9083L19.2505 15.9082L16.4585 10.2196L10.9656 4.26326ZM8.74911 17.1876L8.74821 17.1862C8.61166 16.9667 8.5981 16.6925 8.71218 16.461L8.71234 16.4607L10.4412 12.9223H16.3717L18.1009 16.4607L18.101 16.461C18.2149 16.6925 18.2014 16.9667 18.065 17.1862L18.1499 17.239L18.0642 17.1875C17.9335 17.4052 17.6984 17.5387 17.4445 17.5388H9.36835C9.11458 17.5387 8.87939 17.4052 8.7491 17.1876L8.74911 17.1876ZM11.4363 2.36929H15.4034V2.98097H11.4363V2.36929Z" fill="#0957C3" stroke="#0957C3" stroke-width="0.2"/>
</svg>
