<svg width="19" height="19" viewBox="0 0 19 19" fill="none" xmlns="http://www.w3.org/2000/svg">
<path d="M15.5811 11.9189C14.6912 11.0289 13.6401 10.3584 12.4936 9.93367C13.7188 9.01892 14.5141 7.55783 14.5141 5.91406C14.5141 3.14923 12.2648 0.9 9.5 0.9C6.73516 0.9 4.48594 3.14923 4.48594 5.91406C4.48594 7.55783 5.28121 9.01893 6.50639 9.93367C5.35997 10.3584 4.30885 11.0289 3.41889 11.9189L3.4896 11.9896L3.41889 11.9189C1.954 13.3838 1.08242 15.2846 0.925633 17.3289C0.892742 17.7577 1.24432 18.1 1.66406 18.1C2.08819 18.1 2.42028 17.7565 2.45813 17.3457C2.7893 13.7519 5.82127 10.9281 9.5 10.9281C13.1787 10.9281 16.2107 13.7519 16.5419 17.3457C16.5797 17.7565 16.9118 18.1 17.3359 18.1C17.7557 18.1 18.1073 17.7577 18.0744 17.3289C17.9176 15.2846 17.046 13.3838 15.5811 11.9189L15.5104 11.9896L15.5811 11.9189ZM9.5 9.4C7.57795 9.4 6.01406 7.83615 6.01406 5.91406C6.01406 3.99198 7.57795 2.42813 9.5 2.42813C11.4221 2.42813 12.9859 3.99198 12.9859 5.91406C12.9859 7.83615 11.4221 9.4 9.5 9.4Z" fill="#0957C3" stroke="#0957C3" stroke-width="0.2"/>
</svg>
